<?xml version="1.0" encoding="utf-8"?>
<!-- Generator: Adobe Illustrator 16.2.0, SVG Export Plug-In . SVG Version: 6.00 Build 0)  -->
<!DOCTYPE svg PUBLIC "-//W3C//DTD SVG 1.1//EN" "http://www.w3.org/Graphics/SVG/1.1/DTD/svg11.dtd">
<svg version="1.1" id="Layer_1" xmlns="http://www.w3.org/2000/svg" xmlns:xlink="http://www.w3.org/1999/xlink" x="0px" y="0px"
	 width="612px" height="792px" viewBox="0 0 612 792" enable-background="new 0 0 612 792" xml:space="preserve">
<g>
	<defs>
		<rect id="SVGID_1_" x="0" y="90" width="612" height="612.001"/>
	</defs>
	<clipPath id="SVGID_2_">
		<use xlink:href="#SVGID_1_"  overflow="visible"/>
	</clipPath>
	<g clip-path="url(#SVGID_2_)">
		<path fill-opacity="0" d="M0,90h612v612.001H0V90z"/>
		<path fill="#FFFFFF" d="M-10.552,90h622.579v611.945H-10.552V90z"/>
		<path fill-opacity="0" d="M8.932,100.158h592.502V693.99H8.932V100.158z"/>
		<path fill="none" stroke="#000000" stroke-width="2" stroke-linejoin="round" stroke-miterlimit="10" d="M8.932,100.158h592.502
			V693.99H8.932V100.158z"/>
		<path d="M235.378,117.552h130.72v100.034h-130.72V117.552z"/>
		<path fill="#FFFFFF" d="M271.776,167.537c0-4.763,0.485-8.591,1.456-11.485c0.989-2.913,2.446-5.157,4.369-6.732
			c1.942-1.575,4.379-2.363,7.31-2.363c2.162,0,4.058,0.439,5.688,1.319c1.63,0.86,2.977,2.115,4.039,3.765
			c1.063,1.63,1.896,3.627,2.5,5.99c0.604,2.345,0.907,5.514,0.907,9.507c0,4.727-0.485,8.546-1.456,11.459
			c-0.972,2.895-2.428,5.139-4.369,6.732c-1.924,1.575-4.36,2.363-7.31,2.363c-3.884,0-6.934-1.393-9.15-4.177
			C273.104,180.562,271.776,175.103,271.776,167.537z M276.86,167.537c0,6.613,0.769,11.02,2.308,13.218
			c1.558,2.18,3.472,3.27,5.743,3.27s4.177-1.099,5.716-3.297c1.557-2.198,2.335-6.595,2.335-13.19
			c0-6.631-0.778-11.037-2.335-13.217c-1.539-2.18-3.463-3.27-5.771-3.27c-2.271,0-4.085,0.961-5.441,2.885
			C277.711,156.39,276.86,160.925,276.86,167.537z M303.073,167.537c0-4.763,0.485-8.591,1.456-11.485
			c0.989-2.913,2.445-5.157,4.369-6.732c1.942-1.575,4.378-2.363,7.31-2.363c2.161,0,4.058,0.439,5.688,1.319
			c1.631,0.86,2.978,2.115,4.04,3.765c1.063,1.63,1.896,3.627,2.5,5.99c0.604,2.345,0.907,5.514,0.907,9.507
			c0,4.727-0.485,8.546-1.457,11.459c-0.971,2.895-2.427,5.139-4.368,6.732c-1.924,1.575-4.36,2.363-7.31,2.363
			c-3.884,0-6.934-1.393-9.15-4.177C304.402,180.562,303.073,175.103,303.073,167.537z M308.156,167.537
			c0,6.613,0.77,11.02,2.309,13.218c1.558,2.18,3.472,3.27,5.743,3.27s4.177-1.099,5.716-3.297c1.557-2.198,2.335-6.595,2.335-13.19
			c0-6.631-0.778-11.037-2.335-13.217c-1.539-2.18-3.463-3.27-5.771-3.27c-2.272,0-4.086,0.961-5.441,2.885
			C309.009,156.39,308.156,160.925,308.156,167.537z"/>
		<path fill="#FFFFFF" d="M26.841,121.138h193.254v96.434H26.841V121.138z"/>
		<path fill="none" stroke="#000000" stroke-width="2" stroke-linejoin="round" stroke-miterlimit="10" d="M26.841,121.138h193.254
			v96.434H26.841V121.138z"/>
		<path fill-opacity="0" d="M26.841,217.77l69.791-95.104"/>
		<path fill="none" stroke="#000000" stroke-width="2" stroke-linejoin="round" stroke-miterlimit="10" d="M26.841,217.77
			l69.791-95.104"/>
		<path fill-opacity="0" d="M66.066,217.77l69.79-95.104"/>
		<path fill="none" stroke="#000000" stroke-width="2" stroke-linejoin="round" stroke-miterlimit="10" d="M66.066,217.77
			l69.79-95.104"/>
		<path fill-opacity="0" d="M105.289,217.77l69.791-95.104"/>
		<path fill="none" stroke="#000000" stroke-width="2" stroke-linejoin="round" stroke-miterlimit="10" d="M105.289,217.77
			l69.791-95.104"/>
		<path fill-opacity="0" d="M144.514,217.77l69.791-95.104"/>
		<path fill="none" stroke="#000000" stroke-width="2" stroke-linejoin="round" stroke-miterlimit="10" d="M144.514,217.77
			l69.791-95.104"/>
		<path fill="#FFFFFF" d="M381.38,119.253h193.255v96.434H381.38V119.253z"/>
		<path fill="none" stroke="#000000" stroke-width="2" stroke-linejoin="round" stroke-miterlimit="10" d="M381.38,119.253h193.255
			v96.434H381.38V119.253z"/>
		<path fill-opacity="0" d="M381.38,215.885l69.791-95.104"/>
		<path fill="none" stroke="#000000" stroke-width="2" stroke-linejoin="round" stroke-miterlimit="10" d="M381.38,215.885
			l69.791-95.104"/>
		<path fill-opacity="0" d="M420.605,215.885l69.791-95.104"/>
		<path fill="none" stroke="#000000" stroke-width="2" stroke-linejoin="round" stroke-miterlimit="10" d="M420.605,215.885
			l69.791-95.104"/>
		<path fill-opacity="0" d="M459.829,215.885l69.791-95.104"/>
		<path fill="none" stroke="#000000" stroke-width="2" stroke-linejoin="round" stroke-miterlimit="10" d="M459.829,215.885
			l69.791-95.104"/>
		<path fill-opacity="0" d="M499.053,215.885l69.791-95.104"/>
		<path fill="none" stroke="#000000" stroke-width="2" stroke-linejoin="round" stroke-miterlimit="10" d="M499.053,215.885
			l69.791-95.104"/>
	</g>
	<path clip-path="url(#SVGID_2_)" fill="#231F20" stroke="#000000" stroke-width="2" stroke-miterlimit="10" d="M205.5,396.5
		c0,6.627-5.373,12-12,12h-165c-6.627,0-12-5.373-12-12v-96c0-6.627,5.373-12,12-12h165c6.627,0,12,5.373,12,12V396.5z"/>
	<path clip-path="url(#SVGID_2_)" fill="#231F20" stroke="#000000" stroke-width="2" stroke-miterlimit="10" d="M399.5,396.5
		c0,6.627-5.373,12-12,12h-165c-6.627,0-12-5.373-12-12v-96c0-6.627,5.373-12,12-12h165c6.627,0,12,5.373,12,12V396.5z"/>
	<path clip-path="url(#SVGID_2_)" fill="#231F20" stroke="#000000" stroke-width="2" stroke-miterlimit="10" d="M593.5,397.5
		c0,6.627-5.373,12-12,12h-165c-6.627,0-12-5.373-12-12v-96c0-6.627,5.373-12,12-12h165c6.627,0,12,5.373,12,12V397.5z"/>
	<path clip-path="url(#SVGID_2_)" fill="#231F20" stroke="#000000" stroke-width="2" stroke-miterlimit="10" d="M206.5,523.5
		c0,6.627-5.373,12-12,12h-165c-6.627,0-12-5.373-12-12v-96c0-6.627,5.373-12,12-12h165c6.627,0,12,5.373,12,12V523.5z"/>
	<path clip-path="url(#SVGID_2_)" fill="#231F20" stroke="#000000" stroke-width="2" stroke-miterlimit="10" d="M400.5,523.5
		c0,6.627-5.373,12-12,12h-165c-6.627,0-12-5.373-12-12v-96c0-6.627,5.373-12,12-12h165c6.627,0,12,5.373,12,12V523.5z"/>
	<path clip-path="url(#SVGID_2_)" fill="#231F20" stroke="#000000" stroke-width="2" stroke-miterlimit="10" d="M594.5,524.5
		c0,6.627-5.373,12-12,12h-165c-6.627,0-12-5.373-12-12v-96c0-6.627,5.373-12,12-12h165c6.627,0,12,5.373,12,12V524.5z"/>
	<path clip-path="url(#SVGID_2_)" fill="#231F20" stroke="#000000" stroke-width="2" stroke-miterlimit="10" d="M206.5,650.5
		c0,6.627-5.373,12-12,12h-165c-6.627,0-12-5.373-12-12v-96c0-6.627,5.373-12,12-12h165c6.627,0,12,5.373,12,12V650.5z"/>
	<path clip-path="url(#SVGID_2_)" fill="#231F20" stroke="#000000" stroke-width="2" stroke-miterlimit="10" d="M400.5,650.5
		c0,6.627-5.373,12-12,12h-165c-6.627,0-12-5.373-12-12v-96c0-6.627,5.373-12,12-12h165c6.627,0,12,5.373,12,12V650.5z"/>
	<path clip-path="url(#SVGID_2_)" fill="#231F20" stroke="#000000" stroke-width="2" stroke-miterlimit="10" d="M594.5,651.5
		c0,6.627-5.373,12-12,12h-165c-6.627,0-12-5.373-12-12v-96c0-6.627,5.373-12,12-12h165c6.627,0,12,5.373,12,12V651.5z"/>
</g>
</svg>
